<?xml version="1.0" encoding="utf-8"?>
<svg xmlns="http://www.w3.org/2000/svg" xmlns:xlink="http://www.w3.org/1999/xlink" width="450" height="300" viewBox="0 0 4251 2834">
<rect fill="#FFF" width="4251" height="2834"/>
<g stroke="#010002" stroke-width="10">
<path fill="#369443" stroke-miterlimit="10" d="M1333.424 1918.001c0 0-3.442-23.3 40.807-40.387 44.249-17.087 47.69-80.774 38.84-123.232 0 0-23.108 40.387-51.131 53.849 0 0-45.724 23.818-47.816 69.318 0 0-0.365 16.633-3.807 29.578 -1.884 7.086-22.124-56.956 16.224-104.591 39.575-49.159 50.64-89.058 19.174-166.725 0 0-2.95 47.118-33.924 74.042s-34.914 28.996-34.416 93.2c0 0 0.492 22.265-11.308 29.513 0 0-24.091-35.209-30.482-58.509s-9.341-33.138 18.191-60.062c0 0 88.205-56.999 24.583-181.741 0 0-1.967 42.976-32.449 68.347 -30.482 25.371-28.024 42.458-29.499 86.469s-4.425 40.905-7.866 47.118c0 0-56.048-103.038-12.783-157.923s67.356-66.276 19.666-168.278c0 0 2.117 52.296-36.061 78.185s-29.328 86.469-29.328 86.469 2.458 22.782-5.408 39.351c0 0-54.006-105.338-2.458-162.065 43.757-48.153 46.707-81.809 23.108-150.156 0 0-2.95 31.585-27.041 48.671 -24.091 17.087-43.265 34.173-38.84 99.931 0 0 1.967 46.082-3.933 59.027 0 0-22.616-41.94-29.007-69.382s-8.85-43.494 7.866-70.936 83.089-106.145 3.933-219.538c0 0-2.458 36.762-22.616 69.9 -20.158 33.138-10.816 72.489-6.391 102.52s-10.325 59.027-10.325 59.027 -34.415-63.169-27.041-135.658 -22.124-132.034-88.989-175.009c0 0-48.673 112.876 17.699 170.349 0 0 56.54 55.92 70.798 123.749 0 0-42.773-4.142-81.614-79.738 -38.84-75.596-119.471-63.687-124.879-64.205 0 0 13.275 117.018 137.17 150.156 0 0 79.156 13.462 93.905 71.453 0 0 13.275 39.869 18.683 61.098 0 0-25.074-9.838-48.182-44.011 -23.108-34.173-20.158-38.316-98.33-46.082 0 0-31.466-3.625-48.182-25.889 0 0 32.941 123.749 117.504 122.714 0 0 77.189-8.284 120.454 93.2 0 0-8.358-5.178-19.666-12.945s-39.824-22.264-96.363-15.533 -72.273-2.589-86.53-7.249c0 0 57.031 104.591 137.662 73.525s119.575 82.217 120.454 84.398c0 0-10.816-8.285-25.074-22.265 -14.258-13.98-43.858-31.219-99.805-13.462 0 0-40.315 15.533-81.122 3.107 0 0 39.332 76.114 131.27 63.169s115.046 67.829 115.046 67.829 -12.291-7.249-20.649-13.98 -39.332-24.336-105.705-4.66 -90.464-3.107-90.464-3.107 36.874 67.311 107.671 75.078c0 0 39.332-0.518 56.048-6.731s60.965-16.051 91.447 27.96c0 0-8.358 1.553-21.141-4.142 0 0-47.198-17.087-83.089 12.944 0 0-31.957 32.62-77.189 26.407 0 0 58.506 56.956 151.428 8.802 0 0 31.466-22.782 54.573-5.178C1279.834 1952.693 1333.424 1918.001 1333.424 1918.001z"/>
<g fill="#F4C53D" stroke-miterlimit="10">
<path d="M1850.639 514.82c0 0-10.793-96.359 66.209-105.627 80.303-9.665 119.963 7.249 119.963 7.249l36.054 70.763 -12.455 47.636 -49.821 22.782c0 0 8.522-73.179-58.56-74.702 -16.997-0.386-26.987 6.355-53.869 2.088C1871.122 480.718 1856.662 510.428 1850.639 514.82z"/>
<path d="M2392.437 753.343c-11.472 14.843-57.359 20.021-57.359 20.021s47.198 36.245 67.52 88.022c20.322 51.778-547.042 0.345-547.042 0.345s24.583-17.604 41.299-50.742c0 0-25.074 9.32-50.148-15.533 0 0 18.683 6.213 43.265-31.067 0 0 36.382-46.6 61.948-59.027 0 0-11.8 7.249-40.315-8.284 0 0 49.165-6.213 66.864-90.094 0 0 2.95-18.64 21.633-45.565s14.75 5.178 49.165-36.245c0 0 15.733-29.341 1.967-47.29 -13.766-17.95-28.516-11.391-57.359-28.65 -28.844-17.259-41.626-26.925-31.793-53.504s35.399-22.437 39.004-22.437 5.572-23.128 37.038-39.006c31.466-15.879 115.046-8.975 127.501-2.071s62.931 21.747 92.43 96.307 -7.866 102.52 72.437 215.051c0 0-32.121 6.904-52.771 0.69C2277.719 644.264 2319.345 718.134 2392.437 753.343z"/>
<path fill="none" d="M2041.399 438.706c-65.389-3.107-40.315-65.413-40.315-65.413"/>
<path d="M2154.97 447.249c0 0-11.554-5.437-21.328-18.381 -13.716-18.165-44.308-26.924-60.778-9.838 0 0-16.716 18.64-31.466 19.676 0 0 16.716 5.178 28.27 15.792s23.599 18.381 40.807 16.051c17.208-2.33 19.912-11.391 28.024-16.828C2146.612 448.285 2154.97 447.249 2154.97 447.249z"/>
</g>
<path fill="none" stroke-miterlimit="10" d="M1383.572 1732.636"/>
<path fill="#369443" stroke-miterlimit="10" d="M1323.229 2060.967c0 0-1.475-41.938 51.621-45.044l156.337 217.456c0 0-5.9 13.979-76.693 12.426 0 0-7.498-0.049-11.431 8.235C1437.024 2266.757 1323.229 2060.967 1323.229 2060.967z"/>
<g id="h" fill="#F4C53D">
<path d="M1494.918 1807.886c0 0-49.82 85.606-110.13 86.987 0 0-103.741-12.628-133.073 14.498 -20.454 18.915-41.299 34.519-49.821 82.845 -8.522 48.326 16.388 58.682 22.288 60.753 0 0 4.589 34.519 38.676 25.544 0 0 1.967 35.899 62.276 18.64s85.219-11.736 97.019-71.799c11.8-60.062 22.694-59.079 33.432-66.276 14.422-9.665 41.517-18.8 61.62-30.376 18.061-10.4 87.186-45.565 110.785-48.326 23.599-2.761 18.355-82.154 18.355-82.154h-60.964l-29.499-43.493L1494.918 1807.886z"/>
<path d="M1686.928 1378.477c0 0-60.965 49.707-112.096 0 0 0-20.649 24.853-61.948 17.604s-48.182-28.996-52.115-41.422c0 0-35.727 20.842-65.881 4.38 -30.155-16.462-30.155-41.315-30.155-41.315s-52.443 10.338-79.319-25.207c-26.877-35.545-10.489-70.754 3.933-74.897 0 0-56.7 14.854-72.109-33.828 -13.111-41.422 16.388-62.824 16.388-62.824s-119.47-0.574-168.472-37.97c0 0-40.643-25.544-16.388-52.468 0 0-107.507-17.259-134.384-60.062 0 0-11.8-11.736-7.866-32.448 0 0 0.656-11.736 12.455-12.427 0 0-122.6-18.937-157.983-59.372 0 0-17.044-18.64-8.522-43.493 0 0 1.803-6.559 4.753-10.96 0 0-111.604-23.559-166.669-73.266 0 0-31.787-28.32-15.399-66.291 0 0-186.506-51.072-143.24-133.227 0 0-87.186-28.305-59.654-107.008 0 0-72.109-36.59-40.643-94.581 30.114-55.5 122.585 9.665 232.081 39.96 0 0 296.279 93.282 442.187 118.107l414.573 617.222 241.892 93.2L1686.928 1378.477z"/>
<path d="M1689.878 923.866c0 0-38.857-29.17-108.163 5.178 0 0-23.333 16.068-41.687-1.536 -15.336-14.709-16.775-41.831 4.322-57.49 51.623-38.316 70.798-153.263-7.866-200.898 0 0-114.063-67.656-532.319-174.095 0 0-35.045-9.717-53.728-5.057 -20.572 5.131-34.743 22.782-37.65 37.886 0 0-18.715 53.188 44.206 83.62 0 0 28.408 13 57.687 21.402 0 0-32.16-6.952-45.887 24.853 -13.111 30.376 5.9 61.443 64.898 81.464 0 0 15.957 6.21 38.676 11.736 0 0-50.476 14.498-26.221 55.23 0 0 21.633 42.803 98.002 50.397 0 0-57.031 6.213-16.716 60.408 0 0 17.699 29.686 73.42 40.732 0 0-42.282 1.381-20.977 39.351 21.305 37.971 71.439 59.372 120.775 62.824 0 0 26.72 1.381 45.403-2.761 0 0-46.871 23.473-19.338 62.824 0 0 20.321 27.96 71.125 26.579 0 0-13.187 43.945 24.091 60.58 29.007 12.944 53.098-7.767 53.098-7.767s-9.833 47.118 32.449 63.687c0 0 21.141 10.873 52.606 0 0 0 24.091 53.849 109.638 16.051C1755.267 1241.265 1689.878 923.866 1689.878 923.866z"/>
<path d="M1694.952 1413.256c0 0-12.552 67.393-112.091 152.219 0 0-76.799 67.746-74.833 145.758 2.003 79.44-13.766 88.368-43.921 115.292 0 0 62.276 4.833 92.43-36.59 0 0-1.311 69.037-10.489 75.251 0 0 19.532 1.245 47.854-29.686 0 0 17.044-17.95 32.777-24.853 0 0-18.355 47.636-3.933 91.819 0 0 4.589-17.259 28.843-24.853 0 0 43.921-8.975 60.965-72.489 0 0 11.144-42.113 79.975-79.393 0 0 78.008-29.422 76.042-67.87S1694.952 1413.256 1694.952 1413.256z"/>
<path stroke-miterlimit="10" d="M2056.524 2282.172c0 0-17.869 78.856-79.975 72.489 0 0-43.921-4.142-40.643-77.322 0 0-64.898 34.519-75.386-51.087 0 0-58.998 13.807-58.342-66.276 0 0-55.065 9.665-48.509-61.443 0 0-59.654 15.879-59.654-51.088 0 0-139.628-23.157 151.428-288.576l259.591 154.643L2056.524 2282.172z"/>
<path d="M2085.368 1928.287c0 0-43.265 38.385-74.075-18.915 0 0-41.954-2.071-48.509-33.828 0 0-34.088-3.452-40.643-35.899 0 0-46.543-4.833-45.232-44.184 0 0-84.618-6.532-0.027-102.334 84.591-95.802 228.153 158.945 228.153 158.945L2085.368 1928.287z"/>
<path d="M2133.643 1904.539c41.94 0 89.463 261.996 77.13 419.842 -4.479 57.327-35.19 104.151-77.13 104.151s-72.651-46.824-77.13-104.151C2044.18 2166.536 2091.703 1904.539 2133.643 1904.539"/>
<ellipse cx="2133.643" cy="1902.468" rx="58.032" ry="85.951"/>
<path fill="none" stroke-miterlimit="10" d="M1935.906 2277.34c0 0 6.555-138.765 126.824-337.594M1860.52 2226.252c0 0-18.683-80.083 150.773-316.881 0 0-19.666-56.611 40.643-92.855M1802.177 2159.976c0 0-5.244-86.642 160.606-284.433 0 0-14.651-51.088 45.445-91.82M1753.668 2098.533c0 0 6.228-87.677 168.472-258.89 0 0-8.117-52.468 50.023-84.916M1694.014 2047.446c0 0 11.8-100.104 182.894-251.986 0 0-5.9-39.351 51.132-79.393"/>
<path fill="none" d="M372.257 431.976c0 0 134.384 77.806 552.895 155.612M431.91 538.984c0 0 363.717 118.646 533.1 133.227M575.151 672.21c0 0 213.37 66.981 463.237 109.247M757.218 811.767c0 0 241.072 57.905 356.164 67.515M918.971 925.592c0 0 203.909 42.526 255.573 47.64M1048.767 1030.529c0 0 148.806 22.61 208.029 21.401M1233.627 1120.968c0 0 60.166-2.826 89.081-7.626M1289.347 1217.62c0 0 51.132-13.807 81.286-33.138M1364.734 1317.724c0 0 39.332-15.188 58.342-56.61M1460.769 1354.659c0 0 30.482-27.27 32.449-57.646M1574.832 1378.477c0 0-11.413-9.845-3.605-52.641M1560.082 1263.012c0 0-5.9-12.254-3.933-31.585M1345.068 650.134c0 0 68.831 27.615 91.775 65.585 22.944 37.971 7.833 74.874 0 96.048 -3.936 10.639-52.443 104.16 4.589 171.816M1346.051 1057.108c0 0 0.328-0.345 24.583-7.939M1200.85 957.695c0 0 41.026 8.26 81.286 8.63M1144.147 856.555c0 0 48.182 4.833 93.413 4.142M1072.366 750.928c0 0 69.486 13.807 106.852 14.498M1014.679 632.874c0 0 85.698 24.461 149.462 33.138M1305.736 716.409c0 0-61.62 57.301 12.455 110.46 0 0-30.81 48.326 30.81 98.723M1332.612 949.412c0 0-9.177 92.154 103.574 92.159 0 0-21.633 82.158 87.186 79.397 0 0 12.455 65.585 91.119 52.468"/>
<path fill="none" d="M1441.166 1894.873c0 0-17.839 3.97-56.54 0M1275.808 1943.199c0 0-54.409-8.285-51.787 109.769M1308.585 1970.123c0 0-49.165-6.213-45.887 108.388M1783.352 1693.974c0 0-23.599 4.833-39.988 23.473s-47.854 15.188-47.854 15.188 17.044-13.807 22.944-48.326 24.91-44.874 24.91-44.874M1687.065 1606.747c0 0-23.599 4.833-39.987 23.473s-47.854 15.188-47.854 15.188 17.044-13.807 22.944-48.326 24.91-44.874 24.91-44.874M1670.839 1740.745c0 0-20.605 4.219-34.914 20.495 -14.309 16.275-41.783 13.261-41.783 13.261s14.882-12.056 20.033-42.195c5.151-30.139 21.75-39.181 21.75-39.181"/>
</g>
<use xlink:href="#h" transform="matrix(-1,0,0,1,4251,0)"/>
<g fill="#0081C6" stroke-miterlimit="10">
<polygon points="3118.676 1235.72 3128.888 1559.273 3128.888 1559.273 3071.756 1526.131 3071.756 1526.131 2976.644 1936.727 2937.399 1908.534 3029.985 1515.163 3029.985 1515.163 2965.426 1516.35 2965.426 1516.35 "/>
<polygon points="3488.208 1379.596 3352.991 1670.325 3352.991 1670.325 3317.32 1612.815 3317.32 1612.815 3031.845 1950.138 3000.932 1915.533 3285.328 1582.479 3285.328 1582.479 3227.797 1551.607 3227.797 1551.607 "/>
<polygon points="3364.87 1166.185 3295.218 1481.497 3295.218 1481.497 3248.177 1433.912 3248.177 1433.912 2992.672 1925.206 2953.3 1902.223 3210.525 1411.932 3210.525 1411.932 3147.874 1395.481 3147.874 1395.481 "/>
<path d="M2929.389 2075.016l-19.139 78.25 0 0 52.396 52.196 0 0 -74.053 312.797 -65.867-88.472 -97.596 45.55 74.054-312.798 0 0 68.656-19.142 0 0 17.826-78.111C2885.666 2065.287 2906.432 2057.155 2929.389 2075.016z"/>
<path d="M2946.932 2023.418l-37.718 70.367 0 0 37.783 64.7 0 0 -148.402 281.954 -41.88-103.411 -105.465 17.396 148.403-281.955 0 0 71.021 0.224 0 0 36.415-70.591C2907.089 2002.103 2933.58 2002.048 2946.932 2023.418z"/>
<path d="M2953.3 2043.881l-100.322 127.45 0 0 22.995 71.992 0 0 -204.824 239.57 -18.718-110.682 -106.477-8.035 204.824-239.571 0 0 69.153 17.044 0 0 106.412-135.301C2926.344 2006.349 2954.884 2020.522 2953.3 2043.881z"/>
<path d="M411.327 1745.082c23.917-9.763 41.14-19.185 41.067-44.706 -0.017-6.084-3.398-19.544-10.184-40.379l-160.591-490.801c-9.511-29.158-16.699-46.49-20.035-52.877 -7.219-13.822-21.39-19.451-40.477-27.401h19.768 164.537 19.803c-22.172 10.477-42.387 18.795-42.197 42.302 0.072 8.975 2.598 21.632 7.804 37.976l123.024 385.136 122.902-385.136c5.206-16.344 7.898-29 7.809-37.976 -0.237-24.159-21.287-32.868-41.971-42.302h19.572 158.551 19.686c-18.087 7.248-32.827 12.926-40.4 27.401 -3.34 6.385-10.524 23.72-20.03 52.877l-160.591 490.801c-6.792 20.835-9.25 34.522-10.185 40.86 0 0-7.389 31.04 41.068 44.225L411.327 1745.082 411.327 1745.082z"/>
<path d="M3833.592 1694.608v-555.696c0-9.614-1.585-16.982-4.75-22.112 -3.17-5.122-16.965-19.896-36.651-27.881h19.686 144.542 19.686c-19.686 6.518-33.486 22.353-36.651 27.641 -3.17 5.288-4.75 12.738-4.75 22.353v555.696c0 9.937 1.638 17.546 4.92 22.834 3.276 5.287 16.795 18.194 36.481 27.64h-19.686 -144.542 -19.686c19.686-8.957 33.48-22.75 36.651-27.881C3832.008 1712.079 3833.592 1704.545 3833.592 1694.608z"/>
</g>
<path fill="#FFF" d="M2133.643 1883.694c0 0 492.201-218.11 493.429-722.685h-986.859C1641.442 1665.583 2133.643 1883.694 2133.643 1883.694z"/>
<g fill="#A60032">
<path d="M1716.125 1161.008v322.397c0 0 37.701 74.773 75.912 121.668v-444.064L1716.125 1161.008 1716.125 1161.008z"/>
<path d="M1867.95 1161.008v531.451c0 0 47.473 46.55 75.912 68.989v-600.44H1867.95z"/>
<path d="M2019.775 1161.008v656.92c0 0 54.16 34.979 75.912 46.458v-703.378H2019.775z"/>
<path d="M2551.159 1161.008v322.397c0 0-37.701 74.773-75.912 121.667v-444.064H2551.159z"/>
<path d="M2399.334 1161.008v531.451c0 0-47.473 46.55-75.912 68.989v-600.44H2399.334z"/>
<path d="M2247.51 1161.008v656.92c0 0-54.161 34.979-75.912 46.458v-703.378H2247.51z"/>
</g>
<path fill="#162667" stroke-miterlimit="10" d="M2627.073 794.42c0 0-241.518 126.338-493.429-10.356 -251.911 136.694-493.429 10.356-493.429 10.356v366.588h986.859V794.42H2627.073z"/>
</g>
</svg>